<?xml version="1.0" encoding="iso-8859-1"?>
<!DOCTYPE svg PUBLIC "-//W3C//DTD SVG 1.1//EN" "http://www.w3.org/Graphics/SVG/1.1/DTD/svg11.dtd">
<svg 
 version="1.1" xmlns="http://www.w3.org/2000/svg" xmlns:xlink="http://www.w3.org/1999/xlink" x="0px" y="0px" width="512px"
	 height="512px" viewBox="0 0 512 512" style="enable-background:new 0 0 512 512;" xml:space="preserve"
><g id="afcae5a789ccd549f9c6e2a2f80e7565"><g></g><g fill="#007aff"><path style="display: inline;" d="M352.914,401.363c0,53.525-43.391,96.914-96.915,96.914c-53.521,0-96.91-43.389-96.91-96.914
		c0-53.52,43.39-96.91,96.91-96.91C309.523,304.453,352.914,347.844,352.914,401.363z M483.587,150.084l27.912-39.884
		c-68.274-59.987-157.683-96.478-255.5-96.478c-97.814,0-187.219,36.491-255.498,96.478l27.916,39.884
		c60.227-54.597,140.087-87.907,227.582-87.907C343.499,62.177,423.359,95.487,483.587,150.084z M56.489,190.193l28.094,40.125
		c43.885-43.976,104.526-71.231,171.416-71.231c66.895,0,127.534,27.255,171.423,71.231l28.091-40.125
		c-52.11-49.262-122.314-79.561-199.514-79.561C178.807,110.632,108.601,140.932,56.489,190.193z M255.999,207.543
		c-56.612,0-107.625,24.402-143.093,63.238l28.719,41.033c26.636-33.947,67.988-55.816,114.374-55.816
		c46.393,0,87.745,21.869,114.377,55.816l28.719-41.033C363.631,231.945,312.613,207.543,255.999,207.543z"></path></g></g></svg>